<svg width="83" height="53" viewBox="0 0 83 53" fill="none" xmlns="http://www.w3.org/2000/svg">
<path d="M4.63341 33.0485L0 17H3.29685L5.36852 24.9681L6.05908 28.4696H6.10363C6.37095 27.1379 6.61598 26.0006 6.83874 25.0579L8.57627 17H11.6949L13.4324 25.0355L14.1676 28.4696H14.2121C14.524 27.0481 14.7839 25.8734 14.9918 24.9457L16.9966 17H20.1821L15.6378 33.0485H12.6305L10.6925 24.4519L10.1356 21.6013H10.091C9.92768 22.7236 9.7569 23.6738 9.57869 24.4519L7.6184 33.0485H4.63341Z" fill="white"/>
<path d="M21.519 33.0485V17H33.2362V19.7383H24.749V23.3296H32.1892V26.0006H24.749V30.3326H33.303V33.0485H21.519Z" fill="white"/>
<path d="M35.311 33.0485V17H42.4393C44.1471 17 45.4317 17.3891 46.2931 18.1672C47.1396 18.9303 47.5628 19.9329 47.5628 21.1749C47.5628 22.746 46.7312 23.8159 45.0679 24.3846V24.4519C45.9589 24.7212 46.6718 25.2076 47.2064 25.9108C47.7559 26.6141 48.0306 27.4521 48.0306 28.4247C48.0306 29.8463 47.5628 30.9611 46.6272 31.7691C45.6619 32.622 44.3254 33.0485 42.6175 33.0485H35.311ZM38.541 25.866V30.355H42.2611C43.0333 30.355 43.6422 30.1605 44.0877 29.7715C44.5333 29.3674 44.756 28.8362 44.756 28.1778C44.756 27.4446 44.511 26.876 44.0209 26.472C43.5457 26.068 42.9294 25.866 42.172 25.866H38.541ZM38.541 23.4643H42.0383C42.7512 23.4643 43.3229 23.2997 43.7536 22.9705C44.1843 22.6263 44.3996 22.1475 44.3996 21.534C44.3996 20.9354 44.1917 20.4716 43.7759 20.1424C43.3749 19.8132 42.818 19.6486 42.1052 19.6486H38.541V23.4643Z" fill="white"/>
<path d="M23.3418 53L18.7084 36.9515H22.0052L24.0769 44.9196L24.7675 48.4211H24.812C25.0793 47.0894 25.3244 45.9521 25.5471 45.0094L27.2847 36.9515H30.4033L32.1408 44.987L32.8759 48.4211H32.9205C33.2324 46.9996 33.4922 45.8249 33.7002 44.8972L35.705 36.9515H38.8905L34.3462 53H31.3389L29.4009 44.4034L28.844 41.5528H28.7994C28.6361 42.6751 28.4653 43.6253 28.2871 44.4034L26.3268 53H23.3418Z" fill="white"/>
<path d="M40.2497 53V36.9515H43.4797V53H40.2497Z" fill="white"/>
<path d="M45.3249 53V50.5534L54.0126 39.7347V39.6674H45.8818V36.9515H57.8441V39.6674L49.446 50.1719V50.2392H58V53H45.3249Z" fill="white"/>
<rect width="82" height="2" fill="white"/>
<rect x="61" y="51" width="22" height="2" fill="white"/>
<rect x="81" width="2" height="53" fill="white"/>
<rect width="2" height="14" fill="white"/>
</svg>
